<svg
   viewBox="0 0 140.57253 124.5555"
   version="1.1"
   xml:space="preserve"
   xmlns="http://www.w3.org/2000/svg"
   xmlns:svg="http://www.w3.org/2000/svg"
>
    <g
        transform="translate(-28.47248,-52.632929)"
    >
        <path
            style="fill-opacity:1;stroke-width:0.265;stroke-dasharray:none;stroke-opacity:1"
            d="m 168.49449,163.65944 c -0.0321,0.6636 -0.43093,1.51221 -0.66145,2.19699 -1.45402,4.31936 -4.12819,7.54445 -7.76501,9.36474 -3.69242,1.84811 -4.20903,1.89696 -19.14609,1.81024 -13.16075,-0.0764 -13.2355,-0.0799 -14.45347,-0.68001 -1.69104,-0.83315 -3.09399,-2.27218 -3.872,-3.97155 -0.56783,-1.24031 -0.64056,-1.70934 -0.53614,-3.4572 0.18926,-3.1679 1.70119,-5.38434 4.57411,-6.70551 1.31253,-0.6036 1.42106,-0.60898 13.82447,-0.6866 l 12.50157,-0.0782 V 122.5706 83.688942 H 98.588604 44.216724 v 38.879468 38.87948 l 12.50156,0.0804 c 12.06357,0.0776 12.54375,0.0999 13.70563,0.63754 2.74115,1.26833 4.45012,3.67976 4.68544,6.61134 0.24696,3.07655 -1.39462,5.9458 -4.26937,7.46229 l -1.35555,0.71508 h -14.02292 -14.02291 l -1.98438,-0.64891 c -3.89972,-1.27524 -7.51078,-4.42916 -9.25384,-8.08234 -1.70038,-3.56375 -1.59408,-0.008 -1.59408,-53.31354 0,-43.136638 0.0456,-48.653678 0.41451,-50.100348 1.44867,-5.68173 5.66567,-10.00768 11.24355,-11.53403 1.99793,-0.54672 2.08113,-0.5474 58.86979,-0.47895 l 56.869016,0.0685 1.95285,0.71313 c 5.05541,1.8461 8.9679,6.1897 10.12992,11.24611 l 0.35265,1.53451 c 0.43165,20.584809 0.3277,35.307678 0.34457,52.585938 0.44955,5.82042 -0.42879,56.99583 -0.28867,37.83561 z"
        />
        <path
            style="stroke-width:0.264583"
            d="m 96.201814,176.62634 c -1.72107,-0.61599 -2.89721,-1.46753 -3.85706,-2.79255 -1.58397,-2.18661 -1.56136,-1.84611 -1.56136,-23.51787 v -19.79573 l -6.94532,-0.002 c -4.19095,-7.9e-4 -7.35675,-0.11571 -7.98279,-0.28952 -2.03883,-0.56607 -3.09186,-2.404 -2.67561,-4.66994 0.1593,-0.86714 1.6052,-2.42017 11.47268,-12.32265 6.20973,-6.23175 11.61192,-11.50026 12.00488,-11.70781 0.91809,-0.4849 2.6834,-0.48378 3.598146,0.002 1.10447,0.58689 23.27569,22.93869 23.58868,23.78081 0.61871,1.6647 -0.0791,3.62783 -1.61622,4.54684 -0.81942,0.4899 -1.43891,0.53519 -8.35024,0.61036 l -7.46515,0.0812 -0.0755,20.29172 c -0.0841,22.60772 0.0417,21.08072 -1.93612,23.49445 -1.85231,2.2605 -5.463326,3.269 -8.199046,2.28987 z"
        />
    </g>
</svg>
