<svg
    viewBox="0 0 33.337494 18.930847"
    version="1.1"
    xml:space="preserve"
    xmlns="http://www.w3.org/2000/svg"
    xmlns:svg="http://www.w3.org/2000/svg"
>
    <g transform="matrix(1,0,0,-1,-89.285601,124.5921)">
        <path
            class='mark'
            style="stroke-width:0.264583"
            d="m 104.76373,124.12027 c -0.43656,-0.2737 -4.09773,-3.82428 -8.135935,-7.89017 -6.43761,-6.48176 -7.34219,-7.49337 -7.34219,-8.21098 0,-0.45014 0.074,-1.01118 0.16436,-1.24674 0.25353,-0.6607 1.64234,-1.27074 2.44383,-1.07347 0.43205,0.10635 3.25107,2.71443 7.37984,6.82765 l 6.680725,6.65558 6.68072,-6.65558 c 4.12877,-4.11322 6.94779,-6.7213 7.37984,-6.82765 0.80149,-0.19727 2.1903,0.41277 2.44383,1.07347 0.0904,0.23556 0.16435,0.79675 0.16435,1.24708 0,0.71865 -0.91402,1.73773 -7.47447,8.33358 -4.11097,4.13314 -7.79599,7.68401 -8.18895,7.89083 -0.93352,0.49132 -1.24293,0.4739 -2.19595,-0.1236 z"
        />
    </g>
</svg>
